<svg width="1280" height="225" viewBox="0 0 1280 225" fill="none" xmlns="http://www.w3.org/2000/svg">
<g clip-path="url(#clip0_3015_12721)">
<path d="M0 20C0 8.9543 8.95431 0 20 0H1260C1271.05 0 1280 8.95431 1280 20V205C1280 216.046 1271.05 225 1260 225H20C8.95431 225 0 216.046 0 205V20Z" fill="#0F1832"/>
<g filter="url(#filter0_f_3015_12721)">
<path d="M1062.46 53.6321C670.717 -179.405 333.235 -43.4902 213.463 53.5969C183.817 175.462 464.053 266.45 607.877 296.712C922.634 312.784 1454.21 286.669 1062.46 53.6321Z" fill="#0231FF" fill-opacity="0.7"/>
</g>
<g filter="url(#filter1_f_3015_12721)">
<path d="M922.306 350.119C777.53 493.098 831.106 686.374 875.992 765.14C875.992 894.685 1324.56 863.498 1504.67 765.14C1684.78 666.783 1609.31 521.645 1615.31 350.119C1620.12 212.898 1423.48 168.198 1324.56 163C1250.8 165.799 1067.08 207.141 922.306 350.119Z" fill="#6C01DB"/>
</g>
<path d="M-863.165 -544.181C-859.655 -577.9 -823.242 -597.454 -793.194 -581.753L1716.64 729.65C1750.79 747.489 1751.06 796.256 1717.12 814.481L-1085.92 2319.65C-1119.86 2337.88 -1160.36 2310.71 -1156.37 2272.39L-863.165 -544.181Z" fill="#6F5AC8" fill-opacity="0.1"/>
<path d="M-863.165 -624.181C-859.655 -657.9 -823.242 -677.454 -793.194 -661.753L1716.64 649.65C1750.79 667.489 1751.06 716.256 1717.12 734.481L-1085.92 2239.65C-1119.86 2257.88 -1160.36 2230.71 -1156.37 2192.39L-863.165 -624.181Z" fill="#6F5AC8" fill-opacity="0.1"/>
<path d="M-863.165 -700.181C-859.655 -733.9 -823.242 -753.454 -793.194 -737.753L1716.64 573.65C1750.79 591.489 1751.06 640.256 1717.12 658.481L-1085.92 2163.65C-1119.86 2181.88 -1160.36 2154.71 -1156.37 2116.39L-863.165 -700.181Z" fill="#6F5AC8" fill-opacity="0.1"/>
<path d="M-863.165 -775.181C-859.655 -808.9 -823.242 -828.454 -793.194 -812.753L1716.64 498.65C1750.79 516.489 1751.06 565.256 1717.12 583.481L-1085.92 2088.65C-1119.86 2106.88 -1160.36 2079.71 -1156.37 2041.39L-863.165 -775.181Z" fill="#6F5AC8" fill-opacity="0.1"/>
<path d="M-863.165 -850.181C-859.655 -883.9 -823.242 -903.454 -793.194 -887.753L1716.64 423.65C1750.79 441.489 1751.06 490.256 1717.12 508.481L-1085.92 2013.65C-1119.86 2031.88 -1160.36 2004.71 -1156.37 1966.39L-863.165 -850.181Z" fill="#6F5AC8" fill-opacity="0.1"/>
<path d="M-724.802 -850.181C-721.291 -883.9 -684.878 -903.454 -654.831 -887.753L1855.01 423.65C1889.15 441.489 1889.42 490.256 1855.49 508.481L-947.554 2013.65C-981.493 2031.88 -1021.99 2004.71 -1018 1966.39L-724.802 -850.181Z" fill="#6F5AC8" fill-opacity="0.1"/>
<g filter="url(#filter2_f_3015_12721)">
<circle cx="-183" cy="-183" r="367" fill="#031150"/>
</g>
<path d="M48 57C48 50.3726 53.3726 45 60 45H116C122.627 45 128 50.3726 128 57V113C128 119.627 122.627 125 116 125H60C53.3726 125 48 119.627 48 113V57Z" fill="#050505"/>
<path d="M107.178 95.1372C105.753 95.4997 104.872 95.1528 104.081 93.9653C102.306 91.306 100.347 88.7685 98.4562 86.1841C98.2125 85.8497 97.9594 85.5216 97.6438 85.106C95.4063 88.1247 93.1719 90.9997 91.075 93.9903C90.325 95.0591 89.5375 95.5247 88.1375 95.1466L96.55 83.856L88.7187 73.6591C90.0656 73.3966 90.9969 73.531 91.8219 74.7372C93.6437 77.3997 95.6531 79.9341 97.6562 82.6153C99.6719 79.9435 101.656 77.406 103.531 74.7685C104.284 73.6997 105.094 73.2935 106.447 73.6872C105.422 75.0466 104.419 76.3841 103.409 77.7122C102.047 79.5028 100.709 81.3153 99.2969 83.0685C98.7937 83.6935 98.875 84.0997 99.325 84.6903C101.937 88.1247 104.519 91.5935 107.178 95.1372ZM68.0094 83.6685C68.2344 82.5403 68.3844 81.3903 68.6969 80.2841C70.5719 73.5872 78.2594 70.8028 83.5406 74.9528C86.6344 77.3872 87.4031 80.8185 87.25 84.6872H69.8125C69.55 91.6278 74.5469 95.8185 80.9156 93.681C83.15 92.931 84.4656 91.181 85.125 88.9935C85.4594 87.8966 86.0125 87.7247 87.0438 88.0372C86.5156 90.7747 85.3188 93.0622 82.8188 94.4935C79.0688 96.6372 73.7156 95.9435 70.9 92.9653C69.2375 91.2153 68.5313 89.0372 68.2188 86.6841C68.1719 86.3091 68.075 85.9403 68 85.5685C68.0062 84.9351 68.0094 84.3018 68.0094 83.6685ZM69.8437 83.2028H85.6031C85.5 78.1841 82.375 74.6185 78.1031 74.5872C73.4156 74.5497 70.0469 78.031 69.8437 83.2028Z" fill="#FEFEFE"/>
<path d="M50.8764 147.818H55.6705L64.0057 168.17H64.3125L72.6477 147.818H77.4418V174H73.6832V155.054H73.4403L65.7188 173.962H62.5994L54.8778 155.041H54.6349V174H50.8764V147.818ZM91.1495 174.396C89.3086 174.396 87.7021 173.974 86.3299 173.131C84.9577 172.287 83.8924 171.107 83.1339 169.589C82.3754 168.072 81.9961 166.3 81.9961 164.271C81.9961 162.234 82.3754 160.453 83.1339 158.928C83.8924 157.402 84.9577 156.217 86.3299 155.374C87.7021 154.53 89.3086 154.108 91.1495 154.108C92.9904 154.108 94.5969 154.53 95.9691 155.374C97.3413 156.217 98.4066 157.402 99.1651 158.928C99.9237 160.453 100.303 162.234 100.303 164.271C100.303 166.3 99.9237 168.072 99.1651 169.589C98.4066 171.107 97.3413 172.287 95.9691 173.131C94.5969 173.974 92.9904 174.396 91.1495 174.396ZM91.1623 171.188C92.3555 171.188 93.3441 170.872 94.1282 170.241C94.9123 169.611 95.4918 168.771 95.8668 167.723C96.2504 166.675 96.4421 165.52 96.4421 164.259C96.4421 163.006 96.2504 161.855 95.8668 160.807C95.4918 159.75 94.9123 158.902 94.1282 158.263C93.3441 157.624 92.3555 157.304 91.1623 157.304C89.9606 157.304 88.9634 157.624 88.1708 158.263C87.3867 158.902 86.8029 159.75 86.4194 160.807C86.0444 161.855 85.8569 163.006 85.8569 164.259C85.8569 165.52 86.0444 166.675 86.4194 167.723C86.8029 168.771 87.3867 169.611 88.1708 170.241C88.9634 170.872 89.9606 171.188 91.1623 171.188ZM108.392 162.341V174H104.57V154.364H108.239V157.56H108.482C108.933 156.52 109.641 155.685 110.604 155.054C111.575 154.423 112.798 154.108 114.273 154.108C115.611 154.108 116.783 154.389 117.788 154.952C118.794 155.506 119.574 156.332 120.128 157.432C120.682 158.531 120.959 159.891 120.959 161.51V174H117.136V161.97C117.136 160.547 116.766 159.435 116.024 158.634C115.283 157.824 114.264 157.419 112.969 157.419C112.082 157.419 111.294 157.611 110.604 157.994C109.922 158.378 109.381 158.94 108.98 159.682C108.588 160.415 108.392 161.301 108.392 162.341ZM134.357 174.396C132.516 174.396 130.909 173.974 129.537 173.131C128.165 172.287 127.099 171.107 126.341 169.589C125.582 168.072 125.203 166.3 125.203 164.271C125.203 162.234 125.582 160.453 126.341 158.928C127.099 157.402 128.165 156.217 129.537 155.374C130.909 154.53 132.516 154.108 134.357 154.108C136.197 154.108 137.804 154.53 139.176 155.374C140.548 156.217 141.614 157.402 142.372 158.928C143.131 160.453 143.51 162.234 143.51 164.271C143.51 166.3 143.131 168.072 142.372 169.589C141.614 171.107 140.548 172.287 139.176 173.131C137.804 173.974 136.197 174.396 134.357 174.396ZM134.369 171.188C135.563 171.188 136.551 170.872 137.335 170.241C138.119 169.611 138.699 168.771 139.074 167.723C139.457 166.675 139.649 165.52 139.649 164.259C139.649 163.006 139.457 161.855 139.074 160.807C138.699 159.75 138.119 158.902 137.335 158.263C136.551 157.624 135.563 157.304 134.369 157.304C133.168 157.304 132.17 157.624 131.378 158.263C130.594 158.902 130.01 159.75 129.626 160.807C129.251 161.855 129.064 163.006 129.064 164.259C129.064 165.52 129.251 166.675 129.626 167.723C130.01 168.771 130.594 169.611 131.378 170.241C132.17 170.872 133.168 171.188 134.369 171.188ZM169.829 156.332H165.841C165.687 155.48 165.402 154.73 164.984 154.082C164.566 153.435 164.055 152.885 163.45 152.433C162.845 151.982 162.167 151.641 161.417 151.411C160.676 151.18 159.887 151.065 159.052 151.065C157.544 151.065 156.193 151.445 155 152.203C153.815 152.962 152.877 154.074 152.187 155.54C151.505 157.006 151.164 158.795 151.164 160.909C151.164 163.04 151.505 164.838 152.187 166.304C152.877 167.77 153.819 168.878 155.012 169.628C156.206 170.378 157.548 170.753 159.039 170.753C159.866 170.753 160.65 170.642 161.392 170.42C162.142 170.19 162.819 169.854 163.424 169.411C164.029 168.967 164.541 168.426 164.958 167.787C165.385 167.139 165.679 166.398 165.841 165.562L169.829 165.575C169.616 166.862 169.203 168.047 168.589 169.129C167.984 170.203 167.204 171.132 166.25 171.916C165.304 172.692 164.221 173.293 163.002 173.719C161.784 174.145 160.454 174.358 159.014 174.358C156.747 174.358 154.727 173.821 152.954 172.747C151.181 171.665 149.784 170.118 148.761 168.107C147.747 166.095 147.24 163.696 147.24 160.909C147.24 158.114 147.751 155.714 148.774 153.712C149.797 151.7 151.194 150.158 152.967 149.084C154.74 148.001 156.755 147.46 159.014 147.46C160.403 147.46 161.699 147.661 162.9 148.061C164.11 148.453 165.197 149.033 166.16 149.8C167.123 150.558 167.92 151.487 168.551 152.587C169.181 153.678 169.608 154.926 169.829 156.332ZM178.072 147.818V174H174.249V147.818H178.072ZM191.485 174.396C189.645 174.396 188.038 173.974 186.666 173.131C185.294 172.287 184.228 171.107 183.47 169.589C182.711 168.072 182.332 166.3 182.332 164.271C182.332 162.234 182.711 160.453 183.47 158.928C184.228 157.402 185.294 156.217 186.666 155.374C188.038 154.53 189.645 154.108 191.485 154.108C193.326 154.108 194.933 154.53 196.305 155.374C197.677 156.217 198.743 157.402 199.501 158.928C200.26 160.453 200.639 162.234 200.639 164.271C200.639 166.3 200.26 168.072 199.501 169.589C198.743 171.107 197.677 172.287 196.305 173.131C194.933 173.974 193.326 174.396 191.485 174.396ZM191.498 171.188C192.691 171.188 193.68 170.872 194.464 170.241C195.248 169.611 195.828 168.771 196.203 167.723C196.586 166.675 196.778 165.52 196.778 164.259C196.778 163.006 196.586 161.855 196.203 160.807C195.828 159.75 195.248 158.902 194.464 158.263C193.68 157.624 192.691 157.304 191.498 157.304C190.297 157.304 189.299 157.624 188.507 158.263C187.723 158.902 187.139 159.75 186.755 160.807C186.38 161.855 186.193 163.006 186.193 164.259C186.193 165.52 186.38 166.675 186.755 167.723C187.139 168.771 187.723 169.611 188.507 170.241C189.299 170.872 190.297 171.188 191.498 171.188ZM217.344 165.857V154.364H221.18V174H217.421V170.599H217.217C216.765 171.648 216.04 172.521 215.043 173.22C214.055 173.911 212.823 174.256 211.349 174.256C210.087 174.256 208.971 173.979 207.999 173.425C207.036 172.862 206.278 172.031 205.724 170.932C205.178 169.832 204.906 168.473 204.906 166.854V154.364H208.728V166.393C208.728 167.732 209.099 168.797 209.84 169.589C210.582 170.382 211.545 170.778 212.729 170.778C213.445 170.778 214.157 170.599 214.864 170.241C215.58 169.884 216.173 169.342 216.641 168.618C217.119 167.893 217.353 166.973 217.344 165.857ZM233.667 174.384C232.081 174.384 230.667 173.979 229.422 173.169C228.186 172.351 227.215 171.187 226.507 169.679C225.809 168.162 225.459 166.342 225.459 164.22C225.459 162.098 225.813 160.283 226.52 158.774C227.236 157.266 228.216 156.111 229.461 155.31C230.705 154.509 232.115 154.108 233.692 154.108C234.911 154.108 235.891 154.312 236.632 154.722C237.382 155.122 237.962 155.591 238.371 156.128C238.789 156.665 239.113 157.138 239.343 157.547H239.573V147.818H243.395V174H239.662V170.945H239.343C239.113 171.362 238.78 171.839 238.346 172.376C237.919 172.913 237.331 173.382 236.581 173.783C235.831 174.183 234.86 174.384 233.667 174.384ZM234.51 171.124C235.61 171.124 236.539 170.834 237.297 170.254C238.064 169.666 238.644 168.852 239.036 167.812C239.436 166.773 239.637 165.562 239.637 164.182C239.637 162.818 239.441 161.625 239.049 160.602C238.657 159.58 238.081 158.783 237.323 158.212C236.564 157.641 235.627 157.355 234.51 157.355C233.36 157.355 232.401 157.653 231.634 158.25C230.867 158.847 230.287 159.661 229.895 160.692C229.512 161.723 229.32 162.886 229.32 164.182C229.32 165.494 229.516 166.675 229.908 167.723C230.3 168.771 230.88 169.602 231.647 170.216C232.422 170.821 233.377 171.124 234.51 171.124ZM268.311 165.511H272.198L274.934 169.078L276.225 170.663L280.584 176.352H276.544L273.63 172.555L272.632 171.175L268.311 165.511ZM281.428 160.909C281.428 163.705 280.917 166.108 279.894 168.119C278.871 170.122 277.469 171.665 275.688 172.747C273.915 173.821 271.9 174.358 269.641 174.358C267.374 174.358 265.35 173.821 263.569 172.747C261.796 171.665 260.398 170.118 259.375 168.107C258.353 166.095 257.841 163.696 257.841 160.909C257.841 158.114 258.353 155.714 259.375 153.712C260.398 151.7 261.796 150.158 263.569 149.084C265.35 148.001 267.374 147.46 269.641 147.46C271.9 147.46 273.915 148.001 275.688 149.084C277.469 150.158 278.871 151.7 279.894 153.712C280.917 155.714 281.428 158.114 281.428 160.909ZM277.516 160.909C277.516 158.778 277.171 156.984 276.48 155.527C275.799 154.061 274.861 152.953 273.668 152.203C272.483 151.445 271.141 151.065 269.641 151.065C268.132 151.065 266.786 151.445 265.601 152.203C264.417 152.953 263.479 154.061 262.789 155.527C262.107 156.984 261.766 158.778 261.766 160.909C261.766 163.04 262.107 164.838 262.789 166.304C263.479 167.761 264.417 168.869 265.601 169.628C266.786 170.378 268.132 170.753 269.641 170.753C271.141 170.753 272.483 170.378 273.668 169.628C274.861 168.869 275.799 167.761 276.48 166.304C277.171 164.838 277.516 163.04 277.516 160.909ZM298.485 165.857V154.364H302.32V174H298.562V170.599H298.357C297.906 171.648 297.181 172.521 296.184 173.22C295.195 173.911 293.964 174.256 292.489 174.256C291.228 174.256 290.112 173.979 289.14 173.425C288.177 172.862 287.418 172.031 286.864 170.932C286.319 169.832 286.046 168.473 286.046 166.854V154.364H289.869V166.393C289.869 167.732 290.239 168.797 290.981 169.589C291.722 170.382 292.685 170.778 293.87 170.778C294.586 170.778 295.298 170.599 296.005 170.241C296.721 169.884 297.313 169.342 297.782 168.618C298.259 167.893 298.494 166.973 298.485 165.857ZM307.456 174V154.364H311.279V174H307.456ZM309.387 151.334C308.722 151.334 308.151 151.112 307.674 150.669C307.205 150.217 306.971 149.68 306.971 149.058C306.971 148.428 307.205 147.891 307.674 147.447C308.151 146.996 308.722 146.77 309.387 146.77C310.051 146.77 310.618 146.996 311.087 147.447C311.564 147.891 311.803 148.428 311.803 149.058C311.803 149.68 311.564 150.217 311.087 150.669C310.618 151.112 310.051 151.334 309.387 151.334ZM324.692 174.396C322.792 174.396 321.156 173.966 319.783 173.105C318.42 172.236 317.371 171.038 316.638 169.513C315.906 167.987 315.539 166.24 315.539 164.271C315.539 162.277 315.914 160.517 316.664 158.991C317.414 157.457 318.471 156.26 319.835 155.399C321.198 154.538 322.805 154.108 324.654 154.108C326.146 154.108 327.475 154.385 328.643 154.939C329.81 155.484 330.752 156.251 331.468 157.24C332.192 158.229 332.623 159.384 332.759 160.705H329.039C328.835 159.784 328.366 158.991 327.633 158.327C326.908 157.662 325.937 157.33 324.718 157.33C323.653 157.33 322.719 157.611 321.918 158.173C321.126 158.727 320.508 159.52 320.065 160.551C319.621 161.574 319.4 162.784 319.4 164.182C319.4 165.614 319.617 166.849 320.052 167.889C320.487 168.929 321.1 169.734 321.893 170.305C322.694 170.876 323.636 171.162 324.718 171.162C325.442 171.162 326.099 171.03 326.687 170.766C327.283 170.493 327.782 170.105 328.183 169.602C328.592 169.099 328.877 168.494 329.039 167.787H332.759C332.623 169.057 332.21 170.19 331.519 171.188C330.829 172.185 329.904 172.969 328.745 173.54C327.594 174.111 326.244 174.396 324.692 174.396ZM340.363 167.339L340.337 162.673H341.002L348.826 154.364H353.402L344.479 163.824H343.878L340.363 167.339ZM336.847 174V147.818H340.669V174H336.847ZM349.248 174L342.216 164.668L344.85 161.996L353.939 174H349.248ZM371.6 159.158L368.136 159.771C367.991 159.328 367.761 158.906 367.446 158.506C367.139 158.105 366.721 157.777 366.193 157.521C365.664 157.266 365.004 157.138 364.211 157.138C363.129 157.138 362.225 157.381 361.501 157.866C360.777 158.344 360.414 158.962 360.414 159.72C360.414 160.376 360.657 160.905 361.143 161.305C361.629 161.706 362.413 162.034 363.495 162.29L366.615 163.006C368.422 163.423 369.768 164.067 370.654 164.936C371.541 165.805 371.984 166.935 371.984 168.324C371.984 169.5 371.643 170.548 370.961 171.469C370.288 172.381 369.346 173.097 368.136 173.616C366.934 174.136 365.541 174.396 363.956 174.396C361.757 174.396 359.963 173.928 358.574 172.99C357.184 172.044 356.332 170.702 356.017 168.963L359.711 168.401C359.941 169.364 360.414 170.092 361.13 170.587C361.846 171.072 362.779 171.315 363.93 171.315C365.183 171.315 366.184 171.055 366.934 170.536C367.684 170.007 368.059 169.364 368.059 168.605C368.059 167.991 367.829 167.476 367.369 167.058C366.917 166.641 366.223 166.325 365.285 166.112L361.961 165.384C360.129 164.966 358.774 164.301 357.896 163.389C357.027 162.477 356.592 161.322 356.592 159.925C356.592 158.766 356.916 157.751 357.564 156.882C358.211 156.013 359.106 155.335 360.248 154.849C361.39 154.355 362.699 154.108 364.173 154.108C366.295 154.108 367.966 154.568 369.184 155.489C370.403 156.401 371.208 157.624 371.6 159.158ZM385.353 154.364V157.432H374.627V154.364H385.353ZM377.504 149.659H381.326V168.234C381.326 168.976 381.437 169.534 381.658 169.909C381.88 170.276 382.165 170.527 382.515 170.663C382.873 170.791 383.261 170.855 383.678 170.855C383.985 170.855 384.254 170.834 384.484 170.791C384.714 170.749 384.893 170.714 385.021 170.689L385.711 173.847C385.489 173.932 385.174 174.017 384.765 174.102C384.356 174.196 383.844 174.247 383.231 174.256C382.225 174.273 381.288 174.094 380.418 173.719C379.549 173.344 378.846 172.764 378.309 171.98C377.772 171.196 377.504 170.212 377.504 169.027V149.659ZM395.296 174.435C394.051 174.435 392.926 174.205 391.921 173.744C390.915 173.276 390.118 172.598 389.53 171.712C388.951 170.825 388.661 169.739 388.661 168.452C388.661 167.344 388.874 166.432 389.3 165.716C389.726 165 390.301 164.433 391.026 164.016C391.75 163.598 392.56 163.283 393.455 163.07C394.35 162.857 395.262 162.695 396.191 162.584C397.367 162.447 398.321 162.337 399.054 162.251C399.787 162.158 400.32 162.009 400.652 161.804C400.985 161.599 401.151 161.267 401.151 160.807V160.717C401.151 159.601 400.836 158.736 400.205 158.122C399.583 157.509 398.654 157.202 397.418 157.202C396.131 157.202 395.117 157.487 394.375 158.058C393.642 158.621 393.135 159.247 392.854 159.938L389.262 159.119C389.688 157.926 390.31 156.963 391.128 156.23C391.955 155.489 392.905 154.952 393.979 154.619C395.053 154.278 396.182 154.108 397.367 154.108C398.151 154.108 398.982 154.202 399.86 154.389C400.746 154.568 401.573 154.901 402.34 155.386C403.115 155.872 403.75 156.567 404.245 157.47C404.739 158.365 404.986 159.528 404.986 160.96V174H401.253V171.315H401.1C400.853 171.81 400.482 172.295 399.988 172.773C399.493 173.25 398.858 173.646 398.083 173.962C397.307 174.277 396.378 174.435 395.296 174.435ZM396.127 171.366C397.184 171.366 398.087 171.158 398.837 170.74C399.596 170.322 400.171 169.777 400.563 169.104C400.963 168.422 401.164 167.693 401.164 166.918V164.386C401.027 164.523 400.763 164.651 400.371 164.77C399.988 164.881 399.549 164.979 399.054 165.064C398.56 165.141 398.078 165.213 397.61 165.281C397.141 165.341 396.749 165.392 396.434 165.435C395.692 165.528 395.015 165.686 394.401 165.908C393.796 166.129 393.31 166.449 392.944 166.866C392.586 167.276 392.407 167.821 392.407 168.503C392.407 169.449 392.756 170.165 393.455 170.651C394.154 171.128 395.044 171.366 396.127 171.366ZM410.077 174V154.364H413.772V157.483H413.977C414.335 156.426 414.965 155.595 415.869 154.99C416.781 154.376 417.812 154.07 418.962 154.07C419.201 154.07 419.482 154.078 419.806 154.095C420.138 154.112 420.398 154.134 420.586 154.159V157.815C420.433 157.773 420.16 157.726 419.768 157.675C419.376 157.615 418.984 157.585 418.592 157.585C417.688 157.585 416.883 157.777 416.175 158.161C415.477 158.536 414.923 159.06 414.513 159.733C414.104 160.398 413.9 161.156 413.9 162.009V174H410.077ZM434.22 154.364V157.432H423.494V154.364H434.22ZM426.371 149.659H430.193V168.234C430.193 168.976 430.304 169.534 430.526 169.909C430.747 170.276 431.033 170.527 431.382 170.663C431.74 170.791 432.128 170.855 432.545 170.855C432.852 170.855 433.121 170.834 433.351 170.791C433.581 170.749 433.76 170.714 433.888 170.689L434.578 173.847C434.357 173.932 434.041 174.017 433.632 174.102C433.223 174.196 432.712 174.247 432.098 174.256C431.092 174.273 430.155 174.094 429.286 173.719C428.416 173.344 427.713 172.764 427.176 171.98C426.639 171.196 426.371 170.212 426.371 169.027V149.659ZM457.321 154.364V157.432H446.224V154.364H457.321ZM449.267 174V152.088C449.267 150.861 449.536 149.842 450.072 149.033C450.609 148.214 451.321 147.605 452.207 147.205C453.094 146.795 454.057 146.591 455.097 146.591C455.864 146.591 456.52 146.655 457.065 146.783C457.611 146.902 458.016 147.013 458.28 147.115L457.385 150.209C457.206 150.158 456.976 150.098 456.695 150.03C456.413 149.953 456.072 149.915 455.672 149.915C454.743 149.915 454.078 150.145 453.678 150.605C453.286 151.065 453.089 151.73 453.089 152.599V174H449.267ZM468.763 174.396C466.922 174.396 465.315 173.974 463.943 173.131C462.571 172.287 461.506 171.107 460.747 169.589C459.989 168.072 459.609 166.3 459.609 164.271C459.609 162.234 459.989 160.453 460.747 158.928C461.506 157.402 462.571 156.217 463.943 155.374C465.315 154.53 466.922 154.108 468.763 154.108C470.604 154.108 472.21 154.53 473.582 155.374C474.955 156.217 476.02 157.402 476.778 158.928C477.537 160.453 477.916 162.234 477.916 164.271C477.916 166.3 477.537 168.072 476.778 169.589C476.02 171.107 474.955 172.287 473.582 173.131C472.21 173.974 470.604 174.396 468.763 174.396ZM468.776 171.188C469.969 171.188 470.957 170.872 471.741 170.241C472.526 169.611 473.105 168.771 473.48 167.723C473.864 166.675 474.055 165.52 474.055 164.259C474.055 163.006 473.864 161.855 473.48 160.807C473.105 159.75 472.526 158.902 471.741 158.263C470.957 157.624 469.969 157.304 468.776 157.304C467.574 157.304 466.577 157.624 465.784 158.263C465 158.902 464.416 159.75 464.033 160.807C463.658 161.855 463.47 163.006 463.47 164.259C463.47 165.52 463.658 166.675 464.033 167.723C464.416 168.771 465 169.611 465.784 170.241C466.577 170.872 467.574 171.188 468.776 171.188ZM482.183 174V154.364H485.877V157.483H486.082C486.44 156.426 487.071 155.595 487.974 154.99C488.886 154.376 489.917 154.07 491.068 154.07C491.306 154.07 491.588 154.078 491.912 154.095C492.244 154.112 492.504 154.134 492.691 154.159V157.815C492.538 157.773 492.265 157.726 491.873 157.675C491.481 157.615 491.089 157.585 490.697 157.585C489.794 157.585 488.988 157.777 488.281 158.161C487.582 158.536 487.028 159.06 486.619 159.733C486.21 160.398 486.005 161.156 486.005 162.009V174H482.183ZM505.833 174V147.818H522.248V151.219H509.784V159.196H521.392V162.584H509.784V170.599H522.402V174H505.833ZM530.235 154.364L534.569 162.009L538.941 154.364H543.121L536.998 164.182L543.173 174H538.992L534.569 166.662L530.158 174H525.965L532.076 164.182L526.042 154.364H530.235ZM547.046 181.364V154.364H550.779V157.547H551.099C551.32 157.138 551.64 156.665 552.058 156.128C552.475 155.591 553.055 155.122 553.796 154.722C554.538 154.312 555.518 154.108 556.737 154.108C558.322 154.108 559.737 154.509 560.981 155.31C562.225 156.111 563.201 157.266 563.908 158.774C564.624 160.283 564.982 162.098 564.982 164.22C564.982 166.342 564.629 168.162 563.921 169.679C563.214 171.187 562.242 172.351 561.006 173.169C559.771 173.979 558.36 174.384 556.775 174.384C555.582 174.384 554.606 174.183 553.847 173.783C553.097 173.382 552.509 172.913 552.083 172.376C551.657 171.839 551.329 171.362 551.099 170.945H550.869V181.364H547.046ZM550.792 164.182C550.792 165.562 550.992 166.773 551.393 167.812C551.793 168.852 552.373 169.666 553.131 170.254C553.89 170.834 554.819 171.124 555.918 171.124C557.06 171.124 558.015 170.821 558.782 170.216C559.549 169.602 560.129 168.771 560.521 167.723C560.921 166.675 561.121 165.494 561.121 164.182C561.121 162.886 560.925 161.723 560.533 160.692C560.15 159.661 559.57 158.847 558.795 158.25C558.028 157.653 557.069 157.355 555.918 157.355C554.81 157.355 553.873 157.641 553.106 158.212C552.347 158.783 551.772 159.58 551.38 160.602C550.988 161.625 550.792 162.818 550.792 164.182ZM569.265 174V154.364H572.96V157.483H573.164C573.522 156.426 574.153 155.595 575.056 154.99C575.968 154.376 576.999 154.07 578.15 154.07C578.388 154.07 578.67 154.078 578.994 154.095C579.326 154.112 579.586 154.134 579.773 154.159V157.815C579.62 157.773 579.347 157.726 578.955 157.675C578.563 157.615 578.171 157.585 577.779 157.585C576.876 157.585 576.07 157.777 575.363 158.161C574.664 158.536 574.11 159.06 573.701 159.733C573.292 160.398 573.087 161.156 573.087 162.009V174H569.265ZM590.841 174.396C588.907 174.396 587.24 173.983 585.843 173.156C584.453 172.321 583.38 171.149 582.621 169.641C581.871 168.124 581.496 166.347 581.496 164.31C581.496 162.298 581.871 160.526 582.621 158.991C583.38 157.457 584.436 156.26 585.792 155.399C587.155 154.538 588.749 154.108 590.573 154.108C591.681 154.108 592.755 154.291 593.794 154.658C594.834 155.024 595.767 155.599 596.594 156.384C597.421 157.168 598.073 158.186 598.55 159.439C599.027 160.683 599.266 162.196 599.266 163.977V165.332H583.657V162.469H595.52C595.52 161.463 595.316 160.572 594.907 159.797C594.498 159.013 593.922 158.395 593.181 157.943C592.448 157.491 591.587 157.266 590.598 157.266C589.525 157.266 588.587 157.53 587.786 158.058C586.993 158.578 586.38 159.26 585.945 160.104C585.519 160.939 585.306 161.847 585.306 162.827V165.064C585.306 166.376 585.536 167.493 585.996 168.413C586.465 169.334 587.117 170.037 587.952 170.523C588.787 171 589.763 171.239 590.88 171.239C591.604 171.239 592.265 171.136 592.861 170.932C593.458 170.719 593.973 170.403 594.408 169.986C594.843 169.568 595.175 169.053 595.405 168.439L599.023 169.091C598.733 170.156 598.213 171.089 597.463 171.891C596.722 172.683 595.789 173.301 594.664 173.744C593.547 174.179 592.273 174.396 590.841 174.396ZM618.222 159.158L614.757 159.771C614.612 159.328 614.382 158.906 614.067 158.506C613.76 158.105 613.342 157.777 612.814 157.521C612.286 157.266 611.625 157.138 610.832 157.138C609.75 157.138 608.847 157.381 608.122 157.866C607.398 158.344 607.036 158.962 607.036 159.72C607.036 160.376 607.278 160.905 607.764 161.305C608.25 161.706 609.034 162.034 610.116 162.29L613.236 163.006C615.043 163.423 616.389 164.067 617.276 164.936C618.162 165.805 618.605 166.935 618.605 168.324C618.605 169.5 618.264 170.548 617.582 171.469C616.909 172.381 615.967 173.097 614.757 173.616C613.555 174.136 612.162 174.396 610.577 174.396C608.378 174.396 606.584 173.928 605.195 172.99C603.805 172.044 602.953 170.702 602.638 168.963L606.332 168.401C606.563 169.364 607.036 170.092 607.751 170.587C608.467 171.072 609.401 171.315 610.551 171.315C611.804 171.315 612.805 171.055 613.555 170.536C614.305 170.007 614.68 169.364 614.68 168.605C614.68 167.991 614.45 167.476 613.99 167.058C613.538 166.641 612.844 166.325 611.906 166.112L608.582 165.384C606.75 164.966 605.395 164.301 604.517 163.389C603.648 162.477 603.213 161.322 603.213 159.925C603.213 158.766 603.537 157.751 604.185 156.882C604.832 156.013 605.727 155.335 606.869 154.849C608.011 154.355 609.32 154.108 610.794 154.108C612.916 154.108 614.587 154.568 615.805 155.489C617.024 156.401 617.83 157.624 618.222 159.158ZM637.522 159.158L634.058 159.771C633.913 159.328 633.683 158.906 633.368 158.506C633.061 158.105 632.643 157.777 632.115 157.521C631.586 157.266 630.926 157.138 630.133 157.138C629.051 157.138 628.147 157.381 627.423 157.866C626.699 158.344 626.336 158.962 626.336 159.72C626.336 160.376 626.579 160.905 627.065 161.305C627.551 161.706 628.335 162.034 629.417 162.29L632.537 163.006C634.343 163.423 635.69 164.067 636.576 164.936C637.463 165.805 637.906 166.935 637.906 168.324C637.906 169.5 637.565 170.548 636.883 171.469C636.21 172.381 635.268 173.097 634.058 173.616C632.856 174.136 631.463 174.396 629.877 174.396C627.679 174.396 625.885 173.928 624.495 172.99C623.106 172.044 622.254 170.702 621.939 168.963L625.633 168.401C625.863 169.364 626.336 170.092 627.052 170.587C627.768 171.072 628.701 171.315 629.852 171.315C631.105 171.315 632.106 171.055 632.856 170.536C633.606 170.007 633.981 169.364 633.981 168.605C633.981 167.991 633.751 167.476 633.291 167.058C632.839 166.641 632.145 166.325 631.207 166.112L627.883 165.384C626.051 164.966 624.696 164.301 623.818 163.389C622.949 162.477 622.514 161.322 622.514 159.925C622.514 158.766 622.838 157.751 623.485 156.882C624.133 156.013 625.028 155.335 626.17 154.849C627.312 154.355 628.62 154.108 630.095 154.108C632.217 154.108 633.887 154.568 635.106 155.489C636.325 156.401 637.13 157.624 637.522 159.158ZM644.627 174.243C643.928 174.243 643.327 173.996 642.825 173.501C642.322 172.999 642.07 172.393 642.07 171.686C642.07 170.987 642.322 170.391 642.825 169.896C643.327 169.393 643.928 169.142 644.627 169.142C645.326 169.142 645.927 169.393 646.43 169.896C646.933 170.391 647.184 170.987 647.184 171.686C647.184 172.155 647.065 172.585 646.826 172.977C646.596 173.361 646.289 173.668 645.906 173.898C645.522 174.128 645.096 174.243 644.627 174.243ZM652.304 154.364H656.126V175.278C656.126 176.591 655.888 177.699 655.411 178.602C654.942 179.506 654.243 180.192 653.314 180.661C652.393 181.129 651.256 181.364 649.901 181.364C649.764 181.364 649.636 181.364 649.517 181.364C649.389 181.364 649.257 181.359 649.121 181.351V178.065C649.24 178.065 649.347 178.065 649.44 178.065C649.526 178.065 649.624 178.065 649.734 178.065C650.638 178.065 651.29 177.822 651.69 177.337C652.099 176.859 652.304 176.165 652.304 175.253V154.364ZM654.196 151.334C653.531 151.334 652.96 151.112 652.483 150.669C652.014 150.217 651.78 149.68 651.78 149.058C651.78 148.428 652.014 147.891 652.483 147.447C652.96 146.996 653.531 146.77 654.196 146.77C654.861 146.77 655.428 146.996 655.896 147.447C656.374 147.891 656.612 148.428 656.612 149.058C656.612 149.68 656.374 150.217 655.896 150.669C655.428 151.112 654.861 151.334 654.196 151.334ZM675.983 159.158L672.519 159.771C672.374 159.328 672.144 158.906 671.828 158.506C671.522 158.105 671.104 157.777 670.576 157.521C670.047 157.266 669.387 157.138 668.594 157.138C667.512 157.138 666.608 157.381 665.884 157.866C665.159 158.344 664.797 158.962 664.797 159.72C664.797 160.376 665.04 160.905 665.526 161.305C666.012 161.706 666.796 162.034 667.878 162.29L670.998 163.006C672.804 163.423 674.151 164.067 675.037 164.936C675.924 165.805 676.367 166.935 676.367 168.324C676.367 169.5 676.026 170.548 675.344 171.469C674.671 172.381 673.729 173.097 672.519 173.616C671.317 174.136 669.924 174.396 668.338 174.396C666.14 174.396 664.346 173.928 662.956 172.99C661.567 172.044 660.715 170.702 660.4 168.963L664.094 168.401C664.324 169.364 664.797 170.092 665.513 170.587C666.229 171.072 667.162 171.315 668.313 171.315C669.566 171.315 670.567 171.055 671.317 170.536C672.067 170.007 672.442 169.364 672.442 168.605C672.442 167.991 672.212 167.476 671.752 167.058C671.3 166.641 670.605 166.325 669.668 166.112L666.344 165.384C664.512 164.966 663.157 164.301 662.279 163.389C661.409 162.477 660.975 161.322 660.975 159.925C660.975 158.766 661.299 157.751 661.946 156.882C662.594 156.013 663.489 155.335 664.631 154.849C665.773 154.355 667.081 154.108 668.556 154.108C670.678 154.108 672.348 154.568 673.567 155.489C674.786 156.401 675.591 157.624 675.983 159.158ZM701.667 159.247V162.571H690.059V159.247H701.667ZM716.595 174V147.818H726.183C728.041 147.818 729.58 148.125 730.798 148.739C732.017 149.344 732.929 150.166 733.534 151.206C734.139 152.237 734.442 153.401 734.442 154.696C734.442 155.787 734.241 156.707 733.841 157.457C733.44 158.199 732.903 158.795 732.23 159.247C731.565 159.69 730.832 160.014 730.031 160.219V160.474C730.901 160.517 731.749 160.798 732.575 161.318C733.411 161.83 734.101 162.558 734.646 163.504C735.192 164.45 735.464 165.601 735.464 166.956C735.464 168.294 735.149 169.496 734.518 170.561C733.896 171.618 732.933 172.457 731.629 173.08C730.325 173.693 728.659 174 726.631 174H716.595ZM720.545 170.612H726.247C728.139 170.612 729.494 170.246 730.312 169.513C731.131 168.78 731.54 167.864 731.54 166.764C731.54 165.937 731.331 165.179 730.913 164.489C730.496 163.798 729.899 163.249 729.124 162.839C728.357 162.43 727.445 162.226 726.388 162.226H720.545V170.612ZM720.545 159.145H725.838C726.724 159.145 727.521 158.974 728.229 158.634C728.945 158.293 729.511 157.815 729.929 157.202C730.355 156.58 730.568 155.847 730.568 155.003C730.568 153.92 730.189 153.013 729.43 152.28C728.672 151.547 727.509 151.18 725.94 151.18H720.545V159.145ZM745.558 174.435C744.313 174.435 743.188 174.205 742.183 173.744C741.177 173.276 740.38 172.598 739.792 171.712C739.212 170.825 738.923 169.739 738.923 168.452C738.923 167.344 739.136 166.432 739.562 165.716C739.988 165 740.563 164.433 741.288 164.016C742.012 163.598 742.822 163.283 743.717 163.07C744.612 162.857 745.523 162.695 746.452 162.584C747.629 162.447 748.583 162.337 749.316 162.251C750.049 162.158 750.582 162.009 750.914 161.804C751.246 161.599 751.413 161.267 751.413 160.807V160.717C751.413 159.601 751.097 158.736 750.467 158.122C749.844 157.509 748.915 157.202 747.68 157.202C746.393 157.202 745.379 157.487 744.637 158.058C743.904 158.621 743.397 159.247 743.116 159.938L739.523 159.119C739.95 157.926 740.572 156.963 741.39 156.23C742.217 155.489 743.167 154.952 744.241 154.619C745.315 154.278 746.444 154.108 747.629 154.108C748.413 154.108 749.244 154.202 750.121 154.389C751.008 154.568 751.835 154.901 752.602 155.386C753.377 155.872 754.012 156.567 754.506 157.47C755.001 158.365 755.248 159.528 755.248 160.96V174H751.515V171.315H751.362C751.114 171.81 750.744 172.295 750.249 172.773C749.755 173.25 749.12 173.646 748.344 173.962C747.569 174.277 746.64 174.435 745.558 174.435ZM746.388 171.366C747.445 171.366 748.349 171.158 749.099 170.74C749.857 170.322 750.433 169.777 750.825 169.104C751.225 168.422 751.425 167.693 751.425 166.918V164.386C751.289 164.523 751.025 164.651 750.633 164.77C750.249 164.881 749.81 164.979 749.316 165.064C748.822 165.141 748.34 165.213 747.871 165.281C747.403 165.341 747.011 165.392 746.695 165.435C745.954 165.528 745.276 165.686 744.663 165.908C744.058 166.129 743.572 166.449 743.205 166.866C742.847 167.276 742.668 167.821 742.668 168.503C742.668 169.449 743.018 170.165 743.717 170.651C744.415 171.128 745.306 171.366 746.388 171.366ZM768.61 174.396C766.71 174.396 765.074 173.966 763.701 173.105C762.338 172.236 761.289 171.038 760.556 169.513C759.824 167.987 759.457 166.24 759.457 164.271C759.457 162.277 759.832 160.517 760.582 158.991C761.332 157.457 762.389 156.26 763.752 155.399C765.116 154.538 766.723 154.108 768.572 154.108C770.064 154.108 771.393 154.385 772.561 154.939C773.728 155.484 774.67 156.251 775.386 157.24C776.11 158.229 776.541 159.384 776.677 160.705H772.957C772.752 159.784 772.284 158.991 771.551 158.327C770.826 157.662 769.855 157.33 768.636 157.33C767.571 157.33 766.637 157.611 765.836 158.173C765.044 158.727 764.426 159.52 763.983 160.551C763.539 161.574 763.318 162.784 763.318 164.182C763.318 165.614 763.535 166.849 763.97 167.889C764.404 168.929 765.018 169.734 765.811 170.305C766.612 170.876 767.554 171.162 768.636 171.162C769.36 171.162 770.017 171.03 770.605 170.766C771.201 170.493 771.7 170.105 772.1 169.602C772.51 169.099 772.795 168.494 772.957 167.787H776.677C776.541 169.057 776.127 170.19 775.437 171.188C774.747 172.185 773.822 172.969 772.663 173.54C771.512 174.111 770.162 174.396 768.61 174.396ZM784.281 167.339L784.255 162.673H784.92L792.744 154.364H797.32L788.397 163.824H787.796L784.281 167.339ZM780.765 174V147.818H784.587V174H780.765ZM793.165 174L786.134 164.668L788.768 161.996L797.857 174H793.165ZM808.458 174.396C806.524 174.396 804.858 173.983 803.46 173.156C802.071 172.321 800.997 171.149 800.238 169.641C799.488 168.124 799.113 166.347 799.113 164.31C799.113 162.298 799.488 160.526 800.238 158.991C800.997 157.457 802.054 156.26 803.409 155.399C804.772 154.538 806.366 154.108 808.19 154.108C809.298 154.108 810.372 154.291 811.412 154.658C812.451 155.024 813.385 155.599 814.211 156.384C815.038 157.168 815.69 158.186 816.167 159.439C816.645 160.683 816.883 162.196 816.883 163.977V165.332H801.274V162.469H813.137C813.137 161.463 812.933 160.572 812.524 159.797C812.115 159.013 811.539 158.395 810.798 157.943C810.065 157.491 809.204 157.266 808.216 157.266C807.142 157.266 806.204 157.53 805.403 158.058C804.61 158.578 803.997 159.26 803.562 160.104C803.136 160.939 802.923 161.847 802.923 162.827V165.064C802.923 166.376 803.153 167.493 803.613 168.413C804.082 169.334 804.734 170.037 805.569 170.523C806.404 171 807.38 171.239 808.497 171.239C809.221 171.239 809.882 171.136 810.478 170.932C811.075 170.719 811.591 170.403 812.025 169.986C812.46 169.568 812.792 169.053 813.022 168.439L816.64 169.091C816.35 170.156 815.831 171.089 815.081 171.891C814.339 172.683 813.406 173.301 812.281 173.744C811.164 174.179 809.89 174.396 808.458 174.396ZM824.947 162.341V174H821.124V154.364H824.793V157.56H825.036C825.488 156.52 826.195 155.685 827.158 155.054C828.13 154.423 829.353 154.108 830.827 154.108C832.165 154.108 833.337 154.389 834.343 154.952C835.349 155.506 836.129 156.332 836.683 157.432C837.237 158.531 837.513 159.891 837.513 161.51V174H833.691V161.97C833.691 160.547 833.32 159.435 832.579 158.634C831.837 157.824 830.819 157.419 829.523 157.419C828.637 157.419 827.849 157.611 827.158 157.994C826.477 158.378 825.935 158.94 825.535 159.682C825.143 160.415 824.947 161.301 824.947 162.341ZM849.991 174.384C848.406 174.384 846.991 173.979 845.746 173.169C844.511 172.351 843.539 171.187 842.832 169.679C842.133 168.162 841.783 166.342 841.783 164.22C841.783 162.098 842.137 160.283 842.844 158.774C843.56 157.266 844.54 156.111 845.785 155.31C847.029 154.509 848.44 154.108 850.016 154.108C851.235 154.108 852.215 154.312 852.957 154.722C853.707 155.122 854.286 155.591 854.695 156.128C855.113 156.665 855.437 157.138 855.667 157.547H855.897V147.818H859.719V174H855.987V170.945H855.667C855.437 171.362 855.104 171.839 854.67 172.376C854.244 172.913 853.656 173.382 852.906 173.783C852.156 174.183 851.184 174.384 849.991 174.384ZM850.835 171.124C851.934 171.124 852.863 170.834 853.621 170.254C854.388 169.666 854.968 168.852 855.36 167.812C855.761 166.773 855.961 165.562 855.961 164.182C855.961 162.818 855.765 161.625 855.373 160.602C854.981 159.58 854.406 158.783 853.647 158.212C852.888 157.641 851.951 157.355 850.835 157.355C849.684 157.355 848.725 157.653 847.958 158.25C847.191 158.847 846.612 159.661 846.219 160.692C845.836 161.723 845.644 162.886 845.644 164.182C845.644 165.494 845.84 166.675 846.232 167.723C846.624 168.771 847.204 169.602 847.971 170.216C848.746 170.821 849.701 171.124 850.835 171.124Z" fill="#FCFCFC"/>
<g clip-path="url(#clip1_3015_12721)">
<path d="M1040.13 46.1648C1038.98 43.5466 1036.75 44.9284 1035.4 46.7466L1033.49 50.0557L1046.18 72.0011H1055L1040.13 46.1648Z" fill="url(#paint0_linear_3015_12721)"/>
<path d="M1024.13 42.8177C1022 40.2359 1017.87 39.2905 1014.78 40.7814C1013.29 41.4723 1012.05 42.545 1011.18 44.0359C1011.18 44.0541 995 71.9996 995 71.9996H1004.05L1018.09 48.0177L1019.25 45.9995C1019.47 45.6359 1021.93 41.5086 1024.13 42.8177Z" fill="url(#paint1_linear_3015_12721)"/>
<path d="M1013.84 67.4736C1014.33 68.2554 1018.11 75.1282 1018.67 75.6009C1020.96 76.6009 1022.53 72.7463 1023.49 71.2373L1017.64 61.0918L1013.84 67.4736Z" fill="url(#paint2_linear_3015_12721)"/>
<path d="M1031.96 61.0918L1025.33 72.6009C1025.33 72.6009 1022.47 78.6918 1019.87 77.5463C1021.31 79.1645 1023.44 80.0736 1025.6 80.0009C1028.09 79.8918 1030.38 78.5463 1031.65 76.3463L1036.27 68.3282C1036.22 68.2373 1032.02 61.1645 1031.96 61.0918Z" fill="url(#paint3_linear_3015_12721)"/>
<path d="M1037.8 42.6002C1035.47 39.8911 1031.24 39.182 1028.18 41.0365C1025.29 42.4911 1022.4 49.5456 1020.62 52.1275C1020.65 52.2002 1025.04 59.7638 1025.07 59.8365C1026.71 57.0002 1030.45 50.5093 1032.05 47.7456C1033.16 45.9275 1035.07 41.2911 1037.8 42.6002Z" fill="url(#paint4_linear_3015_12721)"/>
<path d="M1024.76 44.8543C1023.15 47.4361 1021.67 50.5997 1020.62 52.127L1019.38 49.9997C1020.16 48.5452 1022.62 44.0361 1024.76 44.8543Z" fill="url(#paint5_linear_3015_12721)"/>
<path d="M1085.45 54.3095C1084.31 54.2913 1083.18 54.5459 1082.16 55.055C1081.15 55.5641 1080.25 56.3277 1079.6 57.255C1078.96 56.3277 1078.09 55.5822 1077.09 55.0731C1076.09 54.564 1074.96 54.3095 1073.84 54.3277C1069.35 54.3277 1066.29 57.9459 1066.29 63.3095V71.9822H1069.75V63.3095C1069.75 59.8186 1071.29 57.7459 1073.87 57.7459C1076.45 57.7459 1077.93 59.8913 1077.93 63.3095V71.9822H1081.2V63.3095C1081.2 59.8186 1082.75 57.7459 1085.35 57.7459C1087.95 57.7459 1089.38 59.8913 1089.38 63.3095V71.9822H1092.84V63.3095C1092.85 57.9277 1089.89 54.3095 1085.45 54.3095Z" fill="white"/>
<path d="M1103.62 54.0195C1098.64 54.0195 1095 57.8014 1095 63.0014C1095 68.2014 1098.62 71.9832 1103.62 71.9832C1108.62 71.9832 1112.24 68.2014 1112.24 63.0014C1112.24 57.8014 1108.58 54.0195 1103.62 54.0195ZM1103.62 68.565C1100.56 68.565 1098.44 66.2923 1098.44 63.0014C1098.44 59.7104 1100.51 57.4377 1103.62 57.4377C1106.71 57.4377 1108.76 59.6741 1108.76 63.0014C1108.76 66.3286 1106.64 68.565 1103.62 68.565Z" fill="white"/>
<path d="M1122.4 54.3105C1117.87 54.3105 1114.46 58.1651 1114.46 63.2924V71.9651H1117.91V63.2924C1117.91 60.0742 1119.76 57.7287 1122.42 57.7287C1125.07 57.7287 1126.82 60.0742 1126.82 63.2924V71.9651H1130.27V63.2924C1130.31 58.1833 1126.91 54.3105 1122.4 54.3105Z" fill="white"/>
<path d="M1141 54.0195C1136.02 54.0195 1132.38 57.8014 1132.38 63.0014C1132.38 68.2014 1136 72.0014 1141 72.0014C1146 72.0014 1149.56 68.2195 1149.56 63.0195C1149.56 57.8195 1145.96 54.0195 1141 54.0195ZM1141 68.565C1137.95 68.565 1135.82 66.2923 1135.82 63.0014C1135.82 59.7104 1137.91 57.4377 1141 57.4377C1144.09 57.4377 1146.15 59.6741 1146.15 63.0014C1146.15 66.3286 1144.04 68.565 1141 68.565Z" fill="white"/>
<path d="M1160.51 68.5273C1159.8 68.5273 1159.09 68.4 1158.44 68.1091C1157.78 67.8364 1157.18 67.4182 1156.69 66.9091C1156.2 66.4 1155.82 65.7819 1155.56 65.1091C1155.31 64.4364 1155.22 63.7273 1155.26 63.0182C1155.22 62.3091 1155.31 61.6 1155.56 60.9273C1155.82 60.2546 1156.18 59.6364 1156.69 59.1273C1157.18 58.6182 1157.78 58.2 1158.44 57.9273C1159.09 57.6546 1159.8 57.5091 1160.51 57.5091C1161.55 57.4364 1162.58 57.7091 1163.44 58.2909C1164.29 58.8728 1164.95 59.7273 1165.26 60.7091H1168.8C1168.46 58.8 1167.42 57.0728 1165.89 55.8728C1164.36 54.6728 1162.46 54.0546 1160.51 54.1455C1159.35 54.1273 1158.2 54.3455 1157.11 54.8C1156.04 55.2364 1155.06 55.9091 1154.26 56.7455C1153.46 57.5819 1152.82 58.5637 1152.4 59.6546C1151.98 60.7455 1151.8 61.8909 1151.86 63.0546C1151.82 64.2182 1152 65.3637 1152.42 66.4546C1152.84 67.5273 1153.46 68.5273 1154.27 69.3455C1155.07 70.1819 1156.06 70.8364 1157.13 71.291C1158.2 71.7455 1159.35 71.9637 1160.51 71.9637C1162.51 72.0364 1164.46 71.3819 1165.98 70.1091C1167.53 68.8364 1168.55 67.0546 1168.86 65.091H1165.35C1165.06 66.1273 1164.42 67.0364 1163.55 67.6728C1162.66 68.2728 1161.6 68.5819 1160.51 68.5273Z" fill="white"/>
<path d="M1174.45 48.3457H1171.18V71.8003H1174.45V48.3457Z" fill="white"/>
<path d="M1185.33 54.0195C1180.35 54.0195 1176.71 57.8014 1176.71 63.0014C1176.71 68.2014 1180.33 71.9832 1185.33 71.9832C1190.33 71.9832 1193.89 68.2014 1193.89 63.0014C1193.89 57.8014 1190.29 54.0195 1185.33 54.0195ZM1185.33 68.565C1182.27 68.565 1180.15 66.2923 1180.15 63.0014C1180.15 59.7104 1182.22 57.4377 1185.33 57.4377C1188.42 57.4377 1190.53 59.6923 1190.53 63.0014C1190.53 66.3104 1188.36 68.565 1185.33 68.565Z" fill="white"/>
<path d="M1208.64 63.0184C1208.64 66.2366 1206.69 68.5821 1204.15 68.5821C1201.6 68.5821 1199.55 66.2548 1199.55 63.0184V54.3457H1196.09V63.0184C1196.09 68.1275 1199.53 72.0003 1204.07 72.0003C1208.64 72.0003 1211.91 68.1275 1211.91 63.0184V54.3457H1208.64V63.0184Z" fill="white"/>
<path d="M1227.91 47.9824V55.9642C1226.42 54.637 1224.49 53.8915 1222.47 53.9097C1217.65 53.9097 1214.04 57.7642 1214.04 62.8915C1214.04 68.0188 1217.67 71.8733 1222.67 71.8733C1227.67 71.8733 1231.36 68.0915 1231.36 62.8915V47.9824H1227.91ZM1222.65 68.5642C1219.13 68.5642 1217.51 65.6915 1217.51 63.0006C1217.45 62.2915 1217.55 61.5824 1217.78 60.9097C1218.02 60.237 1218.38 59.6188 1218.87 59.0915C1219.36 58.5642 1219.95 58.1461 1220.6 57.8733C1221.25 57.5824 1221.96 57.437 1222.67 57.437C1223.38 57.437 1224.09 57.5824 1224.75 57.8733C1225.4 58.1642 1225.98 58.5824 1226.47 59.0915C1226.96 59.6188 1227.33 60.237 1227.56 60.9097C1227.8 61.5824 1227.89 62.2915 1227.84 63.0006C1227.84 65.7642 1226.24 68.5642 1222.65 68.5642Z" fill="white"/>
</g>
</g>
<defs>
<filter id="filter0_f_3015_12721" x="-88.7158" y="-375.049" width="1589.68" height="975.59" filterUnits="userSpaceOnUse" color-interpolation-filters="sRGB">
<feFlood flood-opacity="0" result="BackgroundImageFix"/>
<feBlend mode="normal" in="SourceGraphic" in2="BackgroundImageFix" result="shape"/>
<feGaussianBlur stdDeviation="150" result="effect1_foregroundBlur_3015_12721"/>
</filter>
<filter id="filter1_f_3015_12721" x="608" y="-57" width="1238" height="1128" filterUnits="userSpaceOnUse" color-interpolation-filters="sRGB">
<feFlood flood-opacity="0" result="BackgroundImageFix"/>
<feBlend mode="normal" in="SourceGraphic" in2="BackgroundImageFix" result="shape"/>
<feGaussianBlur stdDeviation="110" result="effect1_foregroundBlur_3015_12721"/>
</filter>
<filter id="filter2_f_3015_12721" x="-800" y="-800" width="1234" height="1234" filterUnits="userSpaceOnUse" color-interpolation-filters="sRGB">
<feFlood flood-opacity="0" result="BackgroundImageFix"/>
<feBlend mode="normal" in="SourceGraphic" in2="BackgroundImageFix" result="shape"/>
<feGaussianBlur stdDeviation="125" result="effect1_foregroundBlur_3015_12721"/>
</filter>
<linearGradient id="paint0_linear_3015_12721" x1="1023.23" y1="59.6703" x2="1071.37" y2="56.9658" gradientUnits="userSpaceOnUse">
<stop stop-color="#0586FD"/>
<stop offset="0.88" stop-color="#111FFF"/>
</linearGradient>
<linearGradient id="paint1_linear_3015_12721" x1="990.031" y1="84.277" x2="1042.16" y2="7.16322" gradientUnits="userSpaceOnUse">
<stop stop-color="#0586FD"/>
<stop offset="0.88" stop-color="#111FFF"/>
</linearGradient>
<linearGradient id="paint2_linear_3015_12721" x1="992.557" y1="90.2196" x2="1061.97" y2="32.7367" gradientUnits="userSpaceOnUse">
<stop stop-color="#0586FD"/>
<stop offset="0.88" stop-color="#111FFF"/>
</linearGradient>
<linearGradient id="paint3_linear_3015_12721" x1="1006.62" y1="91.753" x2="1058.09" y2="45.1602" gradientUnits="userSpaceOnUse">
<stop stop-color="#0586FD"/>
<stop offset="0.88" stop-color="#111FFF"/>
</linearGradient>
<linearGradient id="paint4_linear_3015_12721" x1="1021.11" y1="63.3363" x2="1040.6" y2="24.9083" gradientUnits="userSpaceOnUse">
<stop stop-color="#0586FD"/>
<stop offset="0.88" stop-color="#111FFF"/>
</linearGradient>
<linearGradient id="paint5_linear_3015_12721" x1="965.111" y1="89.4959" x2="1058.67" y2="22.0912" gradientUnits="userSpaceOnUse">
<stop stop-color="#0586FD"/>
<stop offset="0.88" stop-color="#111FFF"/>
</linearGradient>
<clipPath id="clip0_3015_12721">
<path d="M0 20C0 8.9543 8.95431 0 20 0H1260C1271.05 0 1280 8.95431 1280 20V205C1280 216.046 1271.05 225 1260 225H20C8.95431 225 0 216.046 0 205V20Z" fill="white"/>
</clipPath>
<clipPath id="clip1_3015_12721">
<rect width="236.364" height="40" fill="white" transform="translate(995 40)"/>
</clipPath>
</defs>
</svg>
